<?xml version="1.0" standalone="no"?>
<!DOCTYPE svg PUBLIC "-//W3C//DTD SVG 20010904//EN"
 "http://www.w3.org/TR/2001/REC-SVG-20010904/DTD/svg10.dtd">
<svg version="1.0" xmlns="http://www.w3.org/2000/svg"
 width="1024.000000pt" height="1024.000000pt" viewBox="0 0 1024.000000 1024.000000"
 preserveAspectRatio="xMidYMid meet">

<g transform="translate(0.000000,1024.000000) scale(0.100000,-0.100000)"
fill="#000000" stroke="none">
<path d="M2373 7294 c-48 -24 -100 -86 -114 -136 -25 -90 22 -198 104 -243
l37 -20 0 -172 0 -173 -160 0 -160 0 0 33 c0 21 8 41 20 52 46 41 50 137 9
189 -77 97 -232 60 -255 -61 -9 -45 9 -103 41 -133 15 -14 25 -35 25 -50 0
-26 -3 -28 -60 -34 -125 -14 -242 -70 -337 -160 -112 -106 -167 -217 -181
-368 -7 -81 -7 -82 -37 -88 -46 -10 -89 -36 -122 -74 -53 -59 -58 -89 -58
-336 l0 -225 29 -58 c32 -66 92 -113 157 -123 35 -6 37 -9 53 -66 64 -229 247
-393 478 -429 102 -16 98 -14 98 -57 0 -64 37 -188 82 -275 32 -62 63 -103
128 -167 101 -102 188 -151 323 -184 l92 -23 3 -96 3 -97 -144 0 c-131 0 -147
-2 -171 -21 -36 -28 -36 -86 0 -120 l26 -24 370 0 370 0 24 28 c31 37 31 81
-1 112 -23 24 -29 25 -160 25 l-135 0 0 98 0 98 72 17 c287 67 506 313 542
609 l7 57 47 6 c242 33 430 184 509 410 l28 80 0 485 c0 443 -2 490 -18 545
-59 190 -199 338 -376 397 -61 21 -89 22 -379 26 l-313 3 4 40 c4 34 15 51 73
110 52 53 75 69 97 69 15 0 44 7 65 15 134 57 163 235 53 328 -158 133 -386
-69 -281 -249 l18 -32 -65 -63 c-79 -78 -93 -104 -93 -169 l0 -50 -105 0 -105
0 0 173 0 172 40 23 c58 33 93 91 98 162 7 98 -30 170 -109 210 -47 25 -140
26 -186 4z m155 -140 c12 -14 22 -34 22 -45 0 -28 -26 -75 -45 -83 -83 -32
-158 52 -109 122 33 48 92 50 132 6z m557 -149 c30 -29 31 -45 4 -79 -37 -47
-109 -24 -109 36 0 33 31 68 60 68 12 0 32 -11 45 -25z m457 -662 c90 -42 160
-110 201 -192 l32 -66 0 -495 0 -495 -23 -58 c-33 -81 -116 -168 -200 -209
-63 -31 -73 -33 -197 -36 -71 -2 -136 -9 -142 -14 -9 -7 -13 -39 -13 -92 -1
-205 -44 -322 -163 -441 -108 -108 -227 -155 -388 -155 -243 0 -445 144 -516
367 -18 58 -23 96 -23 181 0 152 3 149 -158 153 -120 4 -131 6 -194 37 -85 42
-177 137 -210 219 -23 58 -23 61 -26 522 -3 518 -2 528 65 628 54 82 143 143
248 169 38 10 236 12 845 11 l795 -2 67 -32z"/>
<path d="M2080 6008 c-55 -37 -80 -83 -80 -143 0 -88 60 -154 148 -163 167
-16 248 194 115 295 -51 39 -135 44 -183 11z"/>
<path d="M3059 6007 c-104 -70 -108 -206 -7 -280 42 -31 123 -33 173 -5 87 51
110 165 50 243 -50 67 -151 86 -216 42z"/>
<path d="M2547 5540 c-161 -41 -303 -200 -319 -359 l-3 -34 108 2 c60 1 124
-3 143 -9 45 -15 61 -52 39 -86 -14 -22 -21 -24 -153 -26 l-137 -3 -3 -72 -3
-73 128 0 c100 0 133 -3 151 -16 30 -21 28 -58 -4 -83 -24 -19 -40 -21 -150
-21 l-124 0 4 -109 c4 -72 12 -128 25 -165 87 -248 397 -353 630 -213 136 82
201 216 201 420 l0 67 -119 0 c-105 0 -121 2 -145 21 -32 25 -34 62 -4 83 17
12 50 16 145 16 l123 0 0 75 0 75 -133 0 c-117 0 -136 2 -150 18 -23 25 -21
55 4 78 18 17 37 19 145 19 l124 0 0 31 c0 79 -62 197 -140 268 -71 64 -157
98 -258 102 -48 2 -104 -1 -125 -6z"/>
<path d="M5014 6515 c-2 -5 -105 -288 -229 -628 -124 -340 -225 -619 -225
-620 0 -1 62 -1 137 0 l137 2 38 112 c21 62 43 116 50 121 7 4 122 8 254 8
191 0 244 -3 253 -13 6 -8 28 -62 48 -121 l38 -108 138 -1 c75 -1 137 -2 137
-1 0 1 -311 870 -384 1074 l-67 185 -161 0 c-98 0 -162 -4 -164 -10z m254
-533 c39 -114 73 -215 77 -224 7 -17 -5 -18 -170 -18 -165 0 -177 1 -170 18 4
9 38 107 75 218 37 110 73 211 80 224 12 22 13 22 26 6 7 -10 44 -111 82 -224z"/>
<path d="M5940 6523 c0 -2 0 -285 0 -629 l0 -625 125 -2 125 -2 0 630 0 630
-125 0 c-69 0 -125 -1 -125 -2z"/>
<path d="M4560 4635 l0 -325 65 0 65 0 0 325 0 325 -65 0 -65 0 0 -325z"/>
<path d="M4810 4635 l0 -325 60 0 60 0 0 207 c0 113 3 203 8 199 4 -4 61 -95
127 -204 l120 -197 63 -3 62 -3 0 326 0 325 -60 0 -60 0 -2 -210 -3 -211 -129
211 -129 210 -58 0 -59 0 0 -325z"/>
<path d="M5400 4900 l0 -60 90 0 90 0 0 -265 0 -265 60 0 60 0 0 265 0 265 95
0 95 0 0 60 0 60 -245 0 -245 0 0 -60z"/>
<path d="M5960 4635 l0 -325 195 0 195 0 0 55 0 54 -132 3 -133 3 -3 78 -3 77
126 0 125 0 0 55 0 55 -125 0 -125 0 0 75 0 75 135 0 135 0 0 60 0 60 -195 0
-195 0 0 -325z"/>
<path d="M6460 4635 l0 -325 66 0 66 0 -4 115 -3 115 50 0 50 0 58 -115 57
-115 65 0 c36 0 65 3 65 8 0 4 -29 62 -64 128 l-63 122 29 17 c67 39 101 139
78 225 -15 56 -79 121 -137 138 -23 7 -98 12 -177 12 l-136 0 0 -325z m303
185 c34 -27 43 -70 22 -114 -21 -44 -56 -58 -134 -54 l-63 3 -1 93 -2 92 76 0
c61 0 81 -4 102 -20z"/>
<path d="M7019 4793 c32 -93 82 -239 110 -325 l53 -158 72 0 73 0 106 308 c58
169 108 315 112 325 6 15 0 17 -62 17 l-70 0 -72 -232 c-41 -128 -76 -239 -80
-246 -4 -7 -19 24 -33 70 -15 46 -50 156 -79 246 l-52 162 -68 0 -68 0 58
-167z"/>
<path d="M7620 4635 l0 -326 60 3 61 3 0 320 0 320 -61 3 -60 3 0 -326z"/>
<path d="M7870 4635 l0 -325 195 0 195 0 0 55 0 54 -132 3 -133 3 -3 78 -3 77
121 0 120 0 0 55 0 55 -120 0 -120 0 0 75 0 74 133 3 132 3 3 58 3 57 -196 0
-195 0 0 -325z"/>
<path d="M8342 4948 c3 -7 40 -154 84 -326 l79 -313 70 3 69 3 56 202 c30 111
58 204 61 208 5 5 28 -70 105 -352 l17 -63 68 0 68 0 10 38 c77 296 151 592
151 601 0 8 -20 11 -62 9 l-63 -3 -50 -222 c-27 -123 -53 -223 -56 -223 -3 0
-31 101 -64 225 l-58 225 -62 0 -62 0 -48 -177 c-26 -98 -52 -199 -58 -225 -7
-27 -14 -48 -18 -48 -3 0 -25 84 -48 188 -24 103 -47 204 -52 225 l-10 37 -65
0 c-49 0 -65 -3 -62 -12z"/>
</g>
</svg>
